<svg xmlns="http://www.w3.org/2000/svg" xmlns:xlink="http://www.w3.org/1999/xlink" viewBox="0 0 2797.51 2785.05"><defs><style>.cls-1{fill:url(#linear-gradient);}.cls-2{fill:url(#linear-gradient-2);}.cls-12,.cls-3{fill:#91b3fa;}.cls-4{fill:url(#linear-gradient-3);}.cls-5{fill:#bdd0fb;}.cls-6{fill:url(#linear-gradient-4);}.cls-13,.cls-16,.cls-43,.cls-51,.cls-7{fill:#fff;}.cls-7{opacity:0.37;}.cls-8{fill:url(#linear-gradient-5);}.cls-9{fill:url(#linear-gradient-6);}.cls-10{fill:url(#linear-gradient-7);}.cls-11{fill:url(#linear-gradient-8);}.cls-12{opacity:0.67;}.cls-13{opacity:0.78;}.cls-14{fill:url(#linear-gradient-9);}.cls-15{fill:url(#linear-gradient-10);}.cls-16{opacity:0.6;}.cls-17{fill:url(#linear-gradient-11);}.cls-18{fill:url(#linear-gradient-12);}.cls-19{fill:url(#linear-gradient-13);}.cls-20{fill:url(#linear-gradient-14);}.cls-21{fill:url(#linear-gradient-15);}.cls-22{fill:url(#linear-gradient-16);}.cls-23{fill:url(#linear-gradient-17);}.cls-24{fill:url(#linear-gradient-18);}.cls-25{fill:url(#linear-gradient-19);}.cls-26{fill:url(#linear-gradient-20);}.cls-27{fill:url(#linear-gradient-21);}.cls-28{fill:url(#linear-gradient-22);}.cls-29{fill:url(#linear-gradient-23);}.cls-30{fill:url(#linear-gradient-24);}.cls-31{fill:#7d97f4;}.cls-32{fill:url(#linear-gradient-25);}.cls-33{fill:url(#linear-gradient-26);}.cls-34{fill:url(#linear-gradient-27);}.cls-35{fill:url(#linear-gradient-28);}.cls-36{fill:url(#linear-gradient-29);}.cls-37{fill:url(#linear-gradient-30);}.cls-38{fill:url(#linear-gradient-31);}.cls-39{fill:url(#linear-gradient-32);}.cls-40{fill:url(#linear-gradient-33);}.cls-41{fill:url(#linear-gradient-34);}.cls-42{fill:url(#linear-gradient-35);}.cls-44{fill:url(#linear-gradient-36);}.cls-45{fill:url(#linear-gradient-37);}.cls-46{fill:url(#linear-gradient-38);}.cls-47{fill:url(#linear-gradient-39);}.cls-48{fill:url(#linear-gradient-40);}.cls-49{fill:url(#linear-gradient-41);}.cls-50{fill:url(#linear-gradient-42);}.cls-51{opacity:0.7;}.cls-52{fill:url(#linear-gradient-43);}.cls-53{fill:url(#linear-gradient-44);}.cls-54{fill:url(#linear-gradient-45);}.cls-55{fill:url(#linear-gradient-46);}.cls-56{fill:url(#linear-gradient-47);}.cls-57{fill:url(#linear-gradient-48);}.cls-58{fill:url(#linear-gradient-49);}.cls-59{fill:url(#linear-gradient-50);}.cls-60{fill:url(#linear-gradient-51);}.cls-61{fill:url(#linear-gradient-52);}.cls-62{fill:url(#linear-gradient-53);}.cls-63{fill:url(#linear-gradient-54);}.cls-64{fill:url(#linear-gradient-55);}.cls-65{fill:url(#linear-gradient-56);}.cls-66{fill:url(#linear-gradient-57);}.cls-67{fill:url(#linear-gradient-58);}.cls-68{fill:url(#linear-gradient-59);}.cls-69{fill:url(#linear-gradient-60);}.cls-70{fill:url(#linear-gradient-61);}.cls-71{fill:url(#linear-gradient-62);}.cls-72{fill:url(#linear-gradient-63);}.cls-73{fill:url(#linear-gradient-64);}.cls-74{fill:url(#linear-gradient-65);}.cls-75{fill:url(#linear-gradient-66);}.cls-76{fill:url(#linear-gradient-67);}.cls-77{fill:url(#linear-gradient-68);}.cls-78{fill:url(#linear-gradient-69);}.cls-79{fill:url(#linear-gradient-70);}.cls-80{fill:url(#linear-gradient-71);}.cls-81{fill:url(#linear-gradient-72);}.cls-82{fill:url(#linear-gradient-73);}.cls-83{fill:url(#linear-gradient-74);}.cls-84{fill:url(#linear-gradient-75);}.cls-85{fill:url(#linear-gradient-76);}</style><linearGradient id="linear-gradient" x1="2963.06" y1="3147.15" x2="916.45" y2="938.11" gradientUnits="userSpaceOnUse"><stop offset="0" stop-color="#dae3fe"/><stop offset="1" stop-color="#e9effd"/></linearGradient><linearGradient id="linear-gradient-2" x1="1163.06" y1="2203.43" x2="1776.48" y2="363.18" gradientUnits="userSpaceOnUse"><stop offset="0" stop-color="#09005d"/><stop offset="1" stop-color="#1a0f91"/></linearGradient><linearGradient id="linear-gradient-3" x1="1499.92" y1="1292.58" x2="1372.66" y2="2687.36" xlink:href="#linear-gradient-2"/><linearGradient id="linear-gradient-4" x1="1759.69" y1="837.59" x2="1900.94" y2="837.59" xlink:href="#linear-gradient"/><linearGradient id="linear-gradient-5" x1="859.39" y1="-586.43" x2="857.2" y2="-252.22" gradientTransform="matrix(-0.9, -0.43, -0.43, 0.9, 2865.92, 976.74)" xlink:href="#linear-gradient-2"/><linearGradient id="linear-gradient-6" x1="1384.28" y1="260.94" x2="1189.32" y2="672.03" gradientTransform="matrix(-0.48, -0.88, -0.88, 0.48, 3144.99, 1374.47)" xlink:href="#linear-gradient-2"/><linearGradient id="linear-gradient-7" x1="920.46" y1="-586.02" x2="918.27" y2="-251.83" gradientTransform="matrix(-0.9, -0.43, -0.43, 0.9, 2865.92, 976.74)" gradientUnits="userSpaceOnUse"><stop offset="0" stop-color="#4f52ff"/><stop offset="1" stop-color="#4042e2"/></linearGradient><linearGradient id="linear-gradient-8" x1="800.78" y1="-586.81" x2="798.59" y2="-252.61" xlink:href="#linear-gradient-7"/><linearGradient id="linear-gradient-9" x1="853.08" y1="-364.11" x2="1104.76" y2="-364.11" xlink:href="#linear-gradient-7"/><linearGradient id="linear-gradient-10" x1="608.42" y1="-364.12" x2="860.11" y2="-364.12" xlink:href="#linear-gradient-7"/><linearGradient id="linear-gradient-11" x1="1961.43" y1="1525.7" x2="2243.75" y2="1525.7" gradientTransform="matrix(1, 0, 0, 1, 0, 0)" xlink:href="#linear-gradient-7"/><linearGradient id="linear-gradient-12" x1="3606.41" y1="1686.5" x2="3729.39" y2="2012.4" gradientTransform="translate(-1327.05)" gradientUnits="userSpaceOnUse"><stop offset="0" stop-color="#febbba"/><stop offset="1" stop-color="#ff928e"/></linearGradient><linearGradient id="linear-gradient-13" x1="3099.38" y1="-191.64" x2="2863.71" y2="400.9" gradientUnits="userSpaceOnUse"><stop offset="0" stop-color="#ff928e"/><stop offset="1" stop-color="#fe7062"/></linearGradient><linearGradient id="linear-gradient-14" x1="4250.74" y1="2506.51" x2="4395.53" y2="2506.51" gradientTransform="matrix(-1, 0, 0, 1, 6793.9, 0)" xlink:href="#linear-gradient-2"/><linearGradient id="linear-gradient-15" x1="-5639.42" y1="2213.03" x2="-5639.42" y2="2512.74" gradientTransform="matrix(-1, 0, 0, 1, -3168.66, 0)" xlink:href="#linear-gradient-7"/><linearGradient id="linear-gradient-16" x1="3996.39" y1="2506.87" x2="4064.18" y2="2506.87" gradientTransform="matrix(-1, 0, 0, 1, 6793.9, 0)" xlink:href="#linear-gradient-2"/><linearGradient id="linear-gradient-17" x1="-5957.18" y1="2283.63" x2="-5926.7" y2="2603.66" gradientTransform="matrix(-1, 0, 0, 1, -3168.66, 0)" xlink:href="#linear-gradient-7"/><linearGradient id="linear-gradient-18" x1="4025.06" y1="2460.13" x2="4069.05" y2="2460.13" gradientTransform="matrix(-1, 0, 0, 1, 6793.9, 0)" xlink:href="#linear-gradient-12"/><linearGradient id="linear-gradient-19" x1="4258.1" y1="2457.25" x2="4294.77" y2="2457.25" gradientTransform="matrix(-1, 0, 0, 1, 6793.9, 0)" xlink:href="#linear-gradient-12"/><linearGradient id="linear-gradient-20" x1="2655.16" y1="2014.58" x2="2960.55" y2="1034.32" gradientTransform="matrix(1, 0, 0, 1, 0, 0)" xlink:href="#linear-gradient-7"/><linearGradient id="linear-gradient-21" x1="2527.32" y1="2002.2" x2="2576.14" y2="1729.5" gradientTransform="matrix(1, 0, 0, 1, 0, 0)" xlink:href="#linear-gradient-7"/><linearGradient id="linear-gradient-22" x1="2283.28" y1="1695.49" x2="2579.55" y2="1712.32" xlink:href="#linear-gradient-13"/><linearGradient id="linear-gradient-23" x1="4367.57" y1="1545.56" x2="4385.63" y2="1434.17" gradientTransform="matrix(-1, 0, 0, 1, 6793.9, 0)" xlink:href="#linear-gradient-12"/><linearGradient id="linear-gradient-24" x1="2252.51" y1="935.49" x2="1813.03" y2="1607.63" gradientTransform="translate(427.78 -576.24) rotate(15.58)" xlink:href="#linear-gradient-2"/><linearGradient id="linear-gradient-25" x1="2305.14" y1="1547.2" x2="2725.75" y2="966.76" xlink:href="#linear-gradient-2"/><linearGradient id="linear-gradient-26" x1="1327.79" y1="-444.58" x2="1460.33" y2="-93.34" gradientTransform="translate(991.83 1110.7) rotate(41.18)" xlink:href="#linear-gradient-12"/><linearGradient id="linear-gradient-27" x1="2599.83" y1="1606.08" x2="2333.39" y2="1902.69" gradientTransform="matrix(1, 0, 0, 1, 0, 0)" xlink:href="#linear-gradient-12"/><linearGradient id="linear-gradient-28" x1="2290.74" y1="1564.19" x2="2587.01" y2="1581.03" xlink:href="#linear-gradient-13"/><linearGradient id="linear-gradient-29" x1="2619.05" y1="1623.35" x2="2352.61" y2="1919.96" gradientTransform="matrix(1, 0, 0, 1, 0, 0)" xlink:href="#linear-gradient-12"/><linearGradient id="linear-gradient-30" x1="-7938.53" y1="-3568.27" x2="-7973.58" y2="-3683.9" gradientTransform="matrix(-0.75, -0.67, -0.67, 0.75, -5948.22, -1224.47)" xlink:href="#linear-gradient-12"/><linearGradient id="linear-gradient-31" x1="-7970.15" y1="-3769.74" x2="-7940.83" y2="-3602.47" gradientTransform="matrix(-0.75, -0.67, -0.67, 0.75, -5948.22, -1224.47)" xlink:href="#linear-gradient-2"/><linearGradient id="linear-gradient-32" x1="-7974.36" y1="-3568.81" x2="-8005.9" y2="-3672.84" gradientTransform="matrix(-0.75, -0.67, -0.67, 0.75, -5948.22, -1224.47)" xlink:href="#linear-gradient-12"/><linearGradient id="linear-gradient-33" x1="2237.55" y1="2320.5" x2="2283" y2="1983.83" gradientTransform="matrix(1, 0, 0, 1, 0, 0)" xlink:href="#linear-gradient-7"/><linearGradient id="linear-gradient-34" x1="2290.04" y1="1828.29" x2="2269.84" y2="1959.59" gradientTransform="matrix(1, 0, 0, 1, 0, 0)" xlink:href="#linear-gradient-7"/><linearGradient id="linear-gradient-35" x1="2240.74" y1="2112.04" x2="2219.56" y2="2211.92" xlink:href="#linear-gradient-2"/><linearGradient id="linear-gradient-36" x1="486.47" y1="558.12" x2="495.79" y2="558.12" gradientTransform="matrix(1, 0, 0, 1, 0, 0)" xlink:href="#linear-gradient-12"/><linearGradient id="linear-gradient-37" x1="487.32" y1="296.54" x2="1182.56" y2="296.54" gradientTransform="matrix(1, 0, 0, 1, 0, 0)" xlink:href="#linear-gradient-12"/><linearGradient id="linear-gradient-38" x1="1216.24" y1="224.53" x2="1236.01" y2="224.53" gradientTransform="matrix(1, 0, 0, 1, 0, 0)" xlink:href="#linear-gradient-12"/><linearGradient id="linear-gradient-39" x1="1347.77" y1="536.19" x2="1356.26" y2="536.19" gradientTransform="matrix(1, 0, 0, 1, 0, 0)" xlink:href="#linear-gradient-12"/><linearGradient id="linear-gradient-40" x1="643.24" y1="779" x2="1350.62" y2="779" gradientTransform="matrix(1, 0, 0, 1, 0, 0)" xlink:href="#linear-gradient-12"/><linearGradient id="linear-gradient-41" x1="592.79" y1="818.89" x2="611.96" y2="818.89" gradientTransform="matrix(1, 0, 0, 1, 0, 0)" xlink:href="#linear-gradient-12"/><linearGradient id="linear-gradient-42" x1="593.92" y1="525.67" x2="1250.22" y2="525.67" xlink:href="#linear-gradient-13"/><linearGradient id="linear-gradient-43" x1="1340.41" y1="640" x2="1358.98" y2="640" gradientTransform="matrix(1, 0, 0, 1, 0, 0)" xlink:href="#linear-gradient-12"/><linearGradient id="linear-gradient-44" x1="1395.41" y1="758.62" x2="1608.46" y2="758.62" gradientTransform="matrix(1, 0, 0, 1, 0, 0)" xlink:href="#linear-gradient-12"/><linearGradient id="linear-gradient-45" x1="1571.48" y1="931.38" x2="1584.37" y2="931.38" gradientTransform="matrix(1, 0, 0, 1, 0, 0)" xlink:href="#linear-gradient-12"/><linearGradient id="linear-gradient-46" x1="1438.76" y1="1024.43" x2="1457.6" y2="1024.43" gradientTransform="matrix(1, 0, 0, 1, 0, 0)" xlink:href="#linear-gradient-12"/><linearGradient id="linear-gradient-47" x1="1205.25" y1="896.84" x2="1402.65" y2="896.84" gradientTransform="matrix(1, 0, 0, 1, 0, 0)" xlink:href="#linear-gradient-12"/><linearGradient id="linear-gradient-48" x1="1234.42" y1="721.09" x2="1247.8" y2="721.09" gradientTransform="matrix(1, 0, 0, 1, 0, 0)" xlink:href="#linear-gradient-12"/><linearGradient id="linear-gradient-49" x1="1255.03" y1="830.21" x2="1562.26" y2="830.21" xlink:href="#linear-gradient-13"/><linearGradient id="linear-gradient-50" x1="-2614.77" y1="910.89" x2="-2466.19" y2="1304.63" gradientTransform="matrix(-1, 0, 0, 1, -1841.6, 0)" xlink:href="#linear-gradient-12"/><linearGradient id="linear-gradient-51" x1="598.57" y1="419.06" x2="649.07" y2="762.47" gradientTransform="matrix(1, 0, 0, 1, 0, 0)" xlink:href="#linear-gradient-7"/><linearGradient id="linear-gradient-52" x1="10442.45" y1="1692.99" x2="10589.96" y2="1692.99" gradientTransform="translate(-9962.55)" xlink:href="#linear-gradient-2"/><linearGradient id="linear-gradient-53" x1="553.65" y1="1394" x2="553.65" y2="1699.33" gradientTransform="matrix(1, 0, 0, 1, 0, 0)" xlink:href="#linear-gradient-7"/><linearGradient id="linear-gradient-54" x1="10183.32" y1="1693.35" x2="10252.39" y2="1693.35" gradientTransform="translate(-9962.55)" xlink:href="#linear-gradient-2"/><linearGradient id="linear-gradient-55" x1="229.92" y1="1465.92" x2="260.98" y2="1791.96" gradientTransform="matrix(1, 0, 0, 1, 0, 0)" xlink:href="#linear-gradient-7"/><linearGradient id="linear-gradient-56" x1="10212.53" y1="1645.74" x2="10257.35" y2="1645.74" gradientTransform="translate(-9962.55)" xlink:href="#linear-gradient-12"/><linearGradient id="linear-gradient-57" x1="10449.95" y1="1642.8" x2="10487.3" y2="1642.8" gradientTransform="translate(-9962.55)" xlink:href="#linear-gradient-12"/><linearGradient id="linear-gradient-58" x1="661.4" y1="729.61" x2="381.02" y2="1631.38" gradientTransform="matrix(1, 0, 0, 1, 0, 0)" xlink:href="#linear-gradient-7"/><linearGradient id="linear-gradient-59" x1="10542.84" y1="1068.54" x2="10389.96" y2="1266.19" gradientTransform="translate(-9962.55)" xlink:href="#linear-gradient-2"/><linearGradient id="linear-gradient-60" x1="871.76" y1="656.76" x2="420.63" y2="959.76" gradientTransform="matrix(1, 0, 0, 1, 0, 0)" xlink:href="#linear-gradient-7"/><linearGradient id="linear-gradient-61" x1="543.01" y1="695.51" x2="707.98" y2="506.97" gradientTransform="matrix(1, 0, 0, 1, 0, 0)" xlink:href="#linear-gradient-12"/><linearGradient id="linear-gradient-62" x1="10526.2" y1="602.47" x2="10407.17" y2="693.55" gradientTransform="translate(-9962.55)" xlink:href="#linear-gradient-12"/><linearGradient id="linear-gradient-63" x1="10537.28" y1="458.11" x2="10645.07" y2="596.89" gradientTransform="translate(-9962.55)" xlink:href="#linear-gradient-2"/><linearGradient id="linear-gradient-64" x1="10606.14" y1="510.71" x2="10487.11" y2="601.79" gradientTransform="translate(-9962.55)" xlink:href="#linear-gradient-12"/><linearGradient id="linear-gradient-65" x1="51.7" y1="1052.41" x2="1023.3" y2="1052.41" xlink:href="#linear-gradient"/><linearGradient id="linear-gradient-66" x1="952.18" y1="885.99" x2="1356.15" y2="885.99" xlink:href="#linear-gradient"/><linearGradient id="linear-gradient-67" x1="-1600.56" y1="17455.41" x2="-1464.22" y2="16480.8" gradientTransform="matrix(-0.25, -0.97, -0.97, 0.25, -3955.1, 3884.13)" xlink:href="#linear-gradient-2"/><linearGradient id="linear-gradient-68" x1="-824.83" y1="13765.68" x2="-688.49" y2="12791.07" gradientTransform="matrix(-0.25, -0.97, -1.2, 0.3, -3817.9, 3849.51)" xlink:href="#linear-gradient-2"/><linearGradient id="linear-gradient-69" x1="-2189.42" y1="927.49" x2="-2022.27" y2="1168.94" gradientTransform="matrix(-1, 0, 0, 1, -1841.6, 0)" xlink:href="#linear-gradient-12"/><linearGradient id="linear-gradient-70" x1="788.49" y1="532.76" x2="337.35" y2="835.77" gradientTransform="matrix(1, 0, 0, 1, 0, 0)" xlink:href="#linear-gradient-7"/><linearGradient id="linear-gradient-71" x1="-2719.27" y1="950.32" x2="-2570.69" y2="1344.06" gradientTransform="matrix(-1, 0, 0, 1, -1841.6, 0)" xlink:href="#linear-gradient-12"/><linearGradient id="linear-gradient-72" x1="-2253.43" y1="971.2" x2="-2084.35" y2="1215.44" gradientTransform="matrix(-1, 0, 0, 1, -1841.6, 0)" xlink:href="#linear-gradient-12"/><linearGradient id="linear-gradient-73" x1="1644.69" y1="2725.71" x2="1789.45" y2="2119.71" xlink:href="#linear-gradient-13"/><linearGradient id="linear-gradient-74" x1="1815.36" y1="2670.21" x2="1896.16" y2="2040.64" xlink:href="#linear-gradient-13"/><linearGradient id="linear-gradient-75" x1="1721.89" y1="2168.2" x2="1674.75" y2="2508.23" gradientUnits="userSpaceOnUse"><stop offset="0" stop-color="#e1473d"/><stop offset="1" stop-color="#e9605a"/></linearGradient><linearGradient id="linear-gradient-76" x1="2808.95" y1="-307.15" x2="2573.28" y2="285.39" xlink:href="#linear-gradient-13"/></defs><title>Asset 1</title><g id="Layer_2" data-name="Layer 2"><g id="Illustration"><path class="cls-1" d="M2677.85,1888.3C2396.63,2545.62,1654.3,2828,1072.68,2779.81c-158.81-13.14-478.33-39.59-727.82-275.52C-134.26,2051.2-60.47,1104.12,398.19,546.53,457.25,474.72,866.09-6.38,1503.2.06c466.45,4.72,793.85,268.21,833.66,301,50.29,41.47,161.22,140,261.18,296.34C2832.93,964.76,2853.58,1477.55,2677.85,1888.3Z"/><path class="cls-2" d="M2671.57,2292.76c0,27.15-20.42,49.37-45.37,49.37H172.52c-25,0-45.38-22.22-45.38-49.37L106.72,757.24c0-27.15,29.38-80.15,83.21-76.17l2398-67.57c31.31-.88,61.59,12.24,83.76,36.31s34.31,57,33.57,91Z"/><path class="cls-3" d="M2626.78,2245.4c0,25.71-19.32,46.75-42.93,46.75H231.69c-23.61,0-42.93-21-42.93-46.75l-19.27-1394c2.27-83.88,69.81-114,110.75-112.25L2578.51,672c22-.64,43.27,8.59,58.85,25.52s24.15,40.08,23.6,64Z"/><path class="cls-4" d="M15.44,2334.68h2766.5a7.5,7.5,0,0,1,7.5,7.5v119.91a7.51,7.51,0,0,1-7.51,7.51H15.44a7.51,7.51,0,0,1-7.51-7.51V2342.18A7.51,7.51,0,0,1,15.44,2334.68Z"/><path class="cls-5" d="M263.8,821.85l1637-38.36c26.62-.62,48.66,15.21,48.66,35v18.19c0,19-20.4,34.49-46,35L267.19,902.36c-25.61.48-47.05-14.28-48.31-33.25l-.71-10.56C216.87,839,237.43,822.47,263.8,821.85Z"/><path class="cls-6" d="M1900.53,826.88c3.48-27.73-15.78-53-43-56.39s-52.11,16.3-55.59,44A50.9,50.9,0,0,0,1813,853.18l-50.69,39a7.05,7.05,0,0,0-.72,10.33l.47.49a6.55,6.55,0,0,0,9.29.25l46.05-45.34a48.87,48.87,0,0,0,27.53,13C1872.17,874.32,1897.06,854.61,1900.53,826.88Zm-53.91,30.59c-19.94-2.5-34-21-31.5-41.3s20.78-34.75,40.72-32.25,34.05,21,31.5,41.3S1866.57,860,1846.62,857.47Z"/><path class="cls-5" d="M233,1531.06l27.3,660.43c.92,22.26,32,39.94,69.7,39.63l801.42-6.52c37.67-.3,67.92-18.46,67.82-40.72l-2.78-666.63c-.1-22.81-32-41.1-70.57-40.51l-825.93,12.71C262,1490,232,1508.65,233,1531.06Z"/><path class="cls-5" d="M1353.31,946.59l502.4-6.11c51.43-.63,94.06,16.07,94.49,37l8.53,415.16c.43,20.92-41.46,37.9-92.87,37.65l-523-2.62c-29.43-.14-53.29-9.74-54-21.71l-24.52-421.18C1263.13,964.27,1302.89,947.2,1353.31,946.59Z"/><path class="cls-5" d="M359.07,937.08,1074,930.79c73.17-.65,133.85,16.56,134.46,38.14l12.14,427.87c.61,21.56-59,39.06-132.16,38.79l-744.28-2.69c-41.88-.15-75.83-10-76.82-22.38l-34.9-434.06C230.74,955.31,287.3,937.72,359.07,937.08Z"/><path class="cls-5" d="M1352.12,1481.2l502.4-9.69c51.42-1,94.06,25.5,94.49,58.73l8.53,658.86c.43,33.2-41.47,60.15-92.88,59.75l-523-4.15c-29.42-.23-53.28-15.47-54-34.47l-24.52-668.4C1261.94,1509.26,1301.69,1482.17,1352.12,1481.2Z"/><path class="cls-5" d="M2089.66,765l392-6.31c40.12-.64,73.38,16.6,73.72,38.23l6.65,428.83c.34,21.61-32.34,39.15-72.45,38.88l-408-2.7c-23-.15-41.57-10.06-42.12-22.43l-19.13-435C2019.31,783.23,2050.32,765.61,2089.66,765Z"/><path class="cls-5" d="M2099.29,1322.18l391.95-5c40.12-.51,73.38,13,73.72,30l6.65,336.47c.34,17-32.35,30.72-72.45,30.51l-408-2.11c-23-.12-41.57-7.9-42.12-17.61l-19.13-341.34C2028.94,1336.51,2060,1322.68,2099.29,1322.18Z"/><path class="cls-7" d="M2118,1789.36l392-5.7c40.11-.58,73.38,15,73.71,34.53l6.66,387.33c.33,19.51-32.35,35.36-72.46,35.12l-408-2.44c-23-.14-41.57-9.09-42.11-20.26L2048.56,1825C2047.63,1805.86,2078.64,1789.93,2118,1789.36Z"/><path class="cls-8" d="M2168.7,280.91c.48-1.07.94-2.14,1.44-3.18,24.1-50.84,64-61.36,99.12-44.7s52.25,54.18,28.16,105c-.21.44-.44.87-.65,1.31C2273.07,321.62,2227.58,292.92,2168.7,280.91Z"/><path class="cls-9" d="M2296.77,339.36c-24.44,50.29-79.92,94.28-114.76,77.76-34.43-16.31-35.9-85.61-13.31-136.21C2227.58,292.92,2273.07,321.62,2296.77,339.36Z"/><path class="cls-10" d="M2235.39,253.8a457.84,457.84,0,0,0,30.82-67.1c4-11.67,7.62-23.58,9.54-36a92.91,92.91,0,0,0,1.12-18.91,41.31,41.31,0,0,0-5.13-18.94,28.42,28.42,0,0,0-15.7-12.61,48.37,48.37,0,0,0-19.5-2.16c-6.48.46-13.53,2.37-18.94,7.28s-7.9,12.22-8.29,18.9a48.61,48.61,0,0,0,3.18,19.55c2.31,6.15,5.4,12,10.4,17.07,2.55,2.39,5.56,4.94,10.21,5.61a11.41,11.41,0,0,0,6.94-1.39,16,16,0,0,0,4.73-4.36c4.11-6.51,5.06-13,6-19.39a4.39,4.39,0,0,0-8.67-1.33.59.59,0,0,1,0,.13l0,.21c-.68,5.68-1.82,11.61-4.27,15.57-1.38,1.82-2.41,2.44-3.78,2.33s-3.68-1.46-5.5-3.22c-3.78-3.61-6.71-8.73-8.74-14a40.92,40.92,0,0,1-3-16.42c.26-5.4,1.9-10.66,5.7-14s9-5.23,14.65-5.71c11.38-1.16,23.7,1.55,29.25,11.13a35.55,35.55,0,0,1,4.59,16.14,86.57,86.57,0,0,1-.77,17.72c-1.62,11.89-4.91,23.63-8.69,35.16A452.92,452.92,0,0,1,2232.18,252l0,0a1.84,1.84,0,0,0,3.24,1.76Z"/><path class="cls-11" d="M2274.36,272a453.79,453.79,0,0,1,33.2-65.08c6.54-10.22,13.54-20.21,21.71-29a86.66,86.66,0,0,1,13.24-11.81,35.41,35.41,0,0,1,15.4-6.68c10.93-1.77,20.83,6.05,27.13,15.6,3.18,4.65,5.23,9.91,4.86,15-.2,5.07-3.23,9.67-7.25,13.29a40.76,40.76,0,0,1-14.61,8.06c-5.36,1.75-11.18,2.72-16.36,2.09-2.52-.3-4.94-1.12-6-2.22s-1.13-2.19-.59-4.4c1.51-4.4,5.37-9.05,9.34-13.17l.14-.14a4.38,4.38,0,0,0-6.32-6.08l-.1.11c-4.31,4.79-8.75,9.65-11.18,16.95a16,16,0,0,0-.39,6.42,11.45,11.45,0,0,0,3.32,6.25c3.47,3.18,7.35,3.9,10.82,4.35,7,.69,13.56-.65,19.79-2.76a48.43,48.43,0,0,0,17.15-9.91c4.92-4.53,9.16-11,9.37-18.38.38-7.3-2.6-14-6.35-19.28a48.66,48.66,0,0,0-14-13.72,28.43,28.43,0,0,0-19.7-4.16,41.45,41.45,0,0,0-17.91,8,93.1,93.1,0,0,0-13.93,12.85c-8.38,9.33-15.33,19.64-21.8,30.15a456.88,456.88,0,0,0-32.42,66.35,1.84,1.84,0,0,0,3.41,1.39Z"/><path class="cls-12" d="M2244.55,296s-20.61,185.91,52.15,196.14S2363.8,395.72,2244.55,296Z"/><path class="cls-12" d="M2244.55,296s-130.86,133.66-184.84,83.82S2091.87,266.84,2244.55,296Z"/><path class="cls-12" d="M2233.45,302.71s-175.8,63.87-202.91-4.41S2108.43,210.34,2233.45,302.71Z"/><path class="cls-12" d="M2251.67,311.34s61.87,176.53,131.88,154.27S2402.32,349.63,2251.67,311.34Z"/><path class="cls-13" d="M2295.69,480.45a4.3,4.3,0,0,0,1.86.42c16.58,0,27.78-5.18,33.31-15.52,16.24-30.38-26.42-94.56-28.25-97.27a4.38,4.38,0,1,0-7.28,4.88c11.61,17.3,39.23,66.88,27.8,88.26-3.88,7.25-12.48,10.92-25.56,10.88a4.39,4.39,0,0,0-1.88,8.35Z"/><path class="cls-14" d="M2241.09,303.33S2179,207.06,2142.56,189.8c-39.29-18.62-99.2-1.25-128.62,9.45a6.31,6.31,0,0,0,.46,12C2081.6,231,2159.34,264.53,2241.09,303.33Z"/><path class="cls-15" d="M2234.74,300.32s113.81-12.9,150.26,4.38c39.28,18.63,63.77,76,74.11,105.54a6.32,6.32,0,0,1-9.58,7.25C2391.71,378,2316.53,339,2234.74,300.32Z"/><path class="cls-16" d="M2435.59,389.92a4.38,4.38,0,0,0,5.89-5.73c-1.58-3.57-39.29-87.37-102-81.68a4.38,4.38,0,1,0,.8,8.73c56.5-5.13,92.83,75.67,93.19,76.49A4.37,4.37,0,0,0,2435.59,389.92Z"/><path class="cls-17" d="M1979.34,2281.56l-17.9-1141.91c-.2-12.53,11.88-22.77,26.85-22.77h0c24.22,0,43.85-16.43,43.85-36.69V801.26c0-17.76,17.58-32,38.79-31.4l96.57,2.69c23.78.66,42.77,16.78,43.22,36.68l33,1472.33Z"/><path class="cls-18" d="M2247.2,1707.08l.4,12.5c38.43,53.5,73.38,39.85,97.46,23.8-14.49-36-17.06-40-28.62-52.54C2273,1722.44,2247.2,1707.08,2247.2,1707.08Z"/><path class="cls-19" d="M2422.33,1648.37l-67.63-105.73c-4.44,59.64-15,115.5-38.26,148.2,11.56,12.52,14.13,16.51,28.62,52.54C2405.14,1703.32,2422.33,1648.37,2422.33,1648.37Z"/><path class="cls-20" d="M2488.72,2535.7c-33.72,1.55-66.35.58-88.14-.54,19.84-14.12,65.55-44.85,103.79-57.08l26.26-1.57s8.89,13.53,12.07,44.49C2538.35,2526.43,2525.63,2534,2488.72,2535.7Z"/><path class="cls-21" d="M2400.31,2535.35l.27-.19c21.79,1.12,54.42,2.09,88.14.54,36.91-1.7,49.63-9.27,54-14.7.15,1.43.3,2.85.42,4.35a12.29,12.29,0,0,1-11.3,13.27c-27.61,2.09-96.08,6.82-129.09,5.09A4.61,4.61,0,0,1,2400.31,2535.35Z"/><path class="cls-22" d="M2729.87,2526.68c2.47-15.83,6.43-38.71,9.49-44.56,4.8-9.18,21.23,0,21.23,0s11.53,5.37,16.84,14.34c3.38,5.71,12.74,22,19.08,33a7.37,7.37,0,0,1,1,3.93l-65.78,2.3A13.14,13.14,0,0,1,2729.87,2526.68Z"/><path class="cls-23" d="M2797.5,2533.4a7.49,7.49,0,0,1-7.29,7.28l-46.86,1.29a13.23,13.23,0,0,1-11.63-6.27Z"/><path class="cls-24" d="M2724.84,2429.51c.57,1.9,9.07,43.1,12.79,61.19a10.32,10.32,0,0,0,10.63,8.25c2.79-.14,6-.39,9.42-.83a12.46,12.46,0,0,0,10.85-11.88c.6-15.84.9-46.26-4.92-58C2755.58,2411.94,2724.84,2429.51,2724.84,2429.51Z"/><path class="cls-25" d="M2535.79,2441.31c-3.64-.12,1.46,18.82-4.06,37.44-1.24,4.19-4.38,7.49-8.76,7.55-2.84,0-6.2,0-9.62-.3a10.57,10.57,0,0,1-9.74-9.52l-4.48-48.29Z"/><path class="cls-26" d="M2433.81,1928c1.63,7.92,59.07,342.94,62.55,516.3a5.91,5.91,0,0,0,5.08,5.75c7.29,1,21.49,2.32,35.26-.23a4.16,4.16,0,0,0,3.42-3.82c2-32.31,18.16-305.45-1.62-434,0,0,163.32,343.72,188.07,438.49a5,5,0,0,0,5.1,3.73c7-.37,21.54-1.62,33.09-5.88a8.63,8.63,0,0,0,5.45-10.16c-13.83-56.72-110.76-447.49-176.57-533.59Z"/><path class="cls-27" d="M2538.5,2014.14a2.1,2.1,0,0,0,1.5-.61,2.14,2.14,0,0,0,0-3l-21.87-22.36a2.15,2.15,0,0,0-3.07,3L2537,2013.5A2.13,2.13,0,0,0,2538.5,2014.14Z"/><path class="cls-28" d="M2340.46,1508.59c41.95-11,119.34-28.37,180.93-24.53,20.12,1.26,23.92,20.21,24.73,34.36,9.3,164.06,23.58,301.46,47.52,386.17-53.82,21.3-107.18,31.18-159.83,23.44q-59.16-126.71-103.38-292.74s-17.28-88.34-.5-117.78C2332.55,1512.92,2336,1509.76,2340.46,1508.59Z"/><path class="cls-29" d="M2441.36,1393.67s10.59,63.19,13.75,92.42a11.46,11.46,0,0,1-6.22,11.43c-11.57,6-36.29,15.56-63.22,6.75a10.69,10.69,0,0,1-7.24-10.41l1.84-84.37Z"/><path class="cls-30" d="M2186.64,1060.47a3.11,3.11,0,0,0,1.19-4.25l-4.3-7.62-.33.18-25.3-41a3.14,3.14,0,0,0-4.3-1l-4.79,3a3.12,3.12,0,0,0-1,4.29l23.36,37.9a3.12,3.12,0,0,1-1.12,4.35l-183.6,103.54a3.11,3.11,0,0,0-1.19,4.25l4.3,7.62.06,0,59.66,105.8a3.14,3.14,0,0,0,4.26,1.19l4.9-2.77a3.13,3.13,0,0,0,1.19-4.25l-58.13-103.08a3.11,3.11,0,0,1,1.18-4.25Z"/><rect class="cls-31" x="1727.37" y="1019.34" width="436.87" height="99.35" transform="translate(-274.18 1093.64) rotate(-29.42)"/><path class="cls-32" d="M2443.65,2011.28l-28.14,14.25a1.49,1.49,0,0,1-2-.66l-381.87-754.34a1.51,1.51,0,0,1,.66-2l28.15-14.24a1.49,1.49,0,0,1,2,.66l381.86,754.34A1.49,1.49,0,0,1,2443.65,2011.28Z"/><ellipse class="cls-31" cx="1755.37" cy="1175.99" rx="18.57" ry="50.05" transform="translate(-351.29 1013.89) rotate(-29.42)"/><ellipse class="cls-31" cx="2133.4" cy="963.22" rx="18.57" ry="50.05" transform="translate(-198.03 1172.14) rotate(-29.42)"/><path class="cls-33" d="M2241.05,1709a16.11,16.11,0,0,1-1.9-13.64c2.76-8.95,8.54-22.08,18.2-19.18,14.37,4.33,16.3,39.86,16.3,39.86l-3.82,22.81,4.8,11.38C2265.13,1745.64,2253.44,1729.21,2241.05,1709Z"/><path class="cls-34" d="M2574,1789.29c5.88-8.25,11.77-17.27,17.58-27.23,57.54-98.56-48-249.48-48-249.48l-32.16,95.74c47.55,53,27.58,104.2,11.4,146.65-21.18,55.58-112.78,102.7-112.78,102.7l17.45,21.53S2521.63,1862.63,2574,1789.29Z"/><path class="cls-35" d="M2610.12,1663.05c-1.19-76.51-62-157.79-73.06-172.1a1.7,1.7,0,0,0-2.89.36l-22.78,117c9.67,22.62,7.7,36.84,17.36,57.21,26.14-3.66,50.4-3.85,76.19,1.74A4.25,4.25,0,0,0,2610.12,1663.05Z"/><path class="cls-36" d="M2410,1857.67c-5.35-2.7-47.27,3.4-40.84,9.17,11.26,10.11,11.76,17.76-.09,27.23-5.85,4.67-19.29,11.75-23,.85-1-3.07-1.18-7.05-4.09-8.44-2.16-1-8.26,6.35-8.62,8.72-2,13.27,8.56,24.32,20.25,28.72,5.66,2.13,11.71,3,17.7,3.94,3.33.51,11.64,1.74,12.38,1.42s1.39-1.26,2-2c2.73-3,17.36-15.35,20.54-19.47,1.71-2.23,23.63-29.85,22.51-32.5C2428.81,1875.35,2414.55,1860,2410,1857.67Z"/><path class="cls-37" d="M2368,1326.34s-33.87,63.76-29.53,89.52,46.32,23.91,83,3l25.62-68.85Z"/><path class="cls-38" d="M2419.84,1385a2.62,2.62,0,0,1-1.14-3.85c2.71-4.14,7.8-12.6,9.42-20,0,0,6.09-3.9-15.5-9.06s-53.78-13.19-60.55-31.57c-6.59-17.91,10.74-63,38.39-27.07a2.63,2.63,0,0,0,4.17,0c4.53-5.9,16.45-18.15,33-10.72,15.49,7,17.23,18.29,17,24a2.61,2.61,0,0,0,3.09,2.68c7.83-1.5,26.62-2.78,35.39,16.5,7.23,15.87,2.53,24.86-1.75,29.25a2.62,2.62,0,0,0,1.13,4.35c5.14,1.58,11.79,5.94,11.12,18-.92,16.66-19.55,15.2-24.86,14.44a2.61,2.61,0,0,0-2.33.82c-4.55,5-25.05,26.41-47.23,29a2.65,2.65,0,0,1-2.78-3.5l9.6-27.91a2.62,2.62,0,0,0-1.43-3.27Z"/><path class="cls-39" d="M2416,1389s24.12-16.55,25.88-2.61-21.71,20.18-33.34,15Z"/><path class="cls-5" d="M2343.54,2537.92c-74.07,24.74-146.05,24.76-215.46,2.15a42.62,42.62,0,0,1-29.42-40.52V2159.61c85.29,18.77,174.69,19.73,268.86,0v345.2A35,35,0,0,1,2343.54,2537.92Z"/><ellipse class="cls-31" cx="2233.09" cy="2156.9" rx="134.43" ry="27.02"/><path class="cls-40" d="M2367.52,2421.36q-134.43,46.77-268.86,0v-135.6c90.42,22.29,180.09,23.42,268.86,0Z"/><path class="cls-41" d="M2113.08,2190.51c2.88,10.77,15.16,18,26,15.36,7.58-1.86,14.06-7.8,21.87-7.94,8.87-.15,16,7.17,21.13,14.37a142.7,142.7,0,0,1,21,43.28c1.49,5.15,2.82,10.63,6.44,14.59,7.75,8.48,22.4,5.76,31-1.84s13.29-18.58,19.69-28.12,16.22-18.44,27.69-17.75c3.84.24,7.56,1.55,11.4,1.71a19.74,19.74,0,0,0,19.22-13.85c.72-2.51.95-5.21,2.25-7.48,3.88-6.79,14.15-7.45,19.47-13,3.37-3.49,4.49-8.58,8.42-12,1.49-1.3,11.68-5.52,11.89-6.16,1.8-5.48-3.9-10.43-9.17-12.78-30.91-13.76-66.24,0-99.75,4.65-32.92,4.61-64.42-2.9-97-2.61C2136.65,2161.13,2106.37,2165.45,2113.08,2190.51Z"/><ellipse class="cls-31" cx="2234.65" cy="2157.67" rx="134.43" ry="27.02"/><ellipse class="cls-42" cx="2231.06" cy="2157.67" rx="110.67" ry="16.34"/><path class="cls-31" d="M768.68,2511.36H42a42,42,0,0,1-42-42V1767.72a42,42,0,0,1,41.85-42l732.53-2A42,42,0,0,1,816.46,1766l-5.82,703.66A42,42,0,0,1,768.68,2511.36Z"/><path class="cls-5" d="M733.07,1777.5l-649.81,4A42.57,42.57,0,0,0,41,1824.27l4.54,590.16a42.56,42.56,0,0,0,41.79,42.37l631.37,11.52a42.58,42.58,0,0,0,43.35-42l13.91-605.68A42.58,42.58,0,0,0,733.07,1777.5Z"/><rect class="cls-16" x="180.5" y="1819.49" width="526.15" height="29.95" rx="12.74"/><path class="cls-16" d="M650.79,1888.58h0a12.73,12.73,0,0,1-12.49,12l-437.86,8a12.73,12.73,0,0,1-13-12.73v-1A12.74,12.74,0,0,1,200,1882.09l437.87-6.94A12.74,12.74,0,0,1,650.79,1888.58Z"/><path class="cls-43" d="M695.48,2434.94h-.43l-592.24-7.11a36.28,36.28,0,0,1-35.85-37L82.2,1974.12a36.06,36.06,0,0,1,11.12-25.36,36.43,36.43,0,0,1,25.87-10.13l591.2,11.51A36.33,36.33,0,0,1,746,1987.06v.1L731.76,2399.4A36.35,36.35,0,0,1,695.48,2434.94Zm-577-484.24a24.2,24.2,0,0,0-24.2,23.75L79,2391.2A24.22,24.22,0,0,0,103,2415.76l592.23,7.11h.29a24.27,24.27,0,0,0,24.21-23.78L733.9,1986.8a24.25,24.25,0,0,0-23.74-24.59L119,1950.7ZM739.94,1987h0Z"/><path class="cls-43" d="M732.26,2031.09h-645a6,6,0,0,1,0-12.08h645a6,6,0,0,1,0,12.08Z"/><path class="cls-44" d="M494.43,569.35a4.11,4.11,0,0,1-6.84-2.69c-.47-5.48-.85-11-1.11-16.52a4.1,4.1,0,0,1,8.19-.4c.26,5.38.63,10.83,1.1,16.21A4.11,4.11,0,0,1,494.43,569.35Z"/><path class="cls-45" d="M1181.21,186.18a4.11,4.11,0,0,1-5.2.25c-8.89-6.63-18.16-13-27.55-18.88a4.1,4.1,0,1,1,4.37-6.94c9.57,6,19,12.48,28.08,19.24a4.1,4.1,0,0,1,.84,5.74A3.82,3.82,0,0,1,1181.21,186.18Zm-76-45.18a4.1,4.1,0,0,1-4.47.68c-10-4.64-20.42-9-30.84-12.82a4.1,4.1,0,1,1,2.85-7.69c10.62,3.94,21.2,8.34,31.43,13.07a4.1,4.1,0,0,1,2,5.44A4,4,0,0,1,1105.26,141Zm-83.59-28.72a4.08,4.08,0,0,1-3.68,1c-10.82-2.53-21.86-4.66-32.79-6.33a4.1,4.1,0,0,1,1.24-8.11c11.15,1.71,22.39,3.88,33.41,6.46a4.09,4.09,0,0,1,3.06,4.93A4,4,0,0,1,1021.67,112.28Zm-527.5,386a4.1,4.1,0,0,1-6.84-3.37c.9-11.25,2.26-22.62,4-33.8a4.1,4.1,0,0,1,8.1,1.29c-1.74,11-3.07,22.13-3.95,33.16A4.09,4.09,0,0,1,494.17,498.23ZM934,101.06a4.14,4.14,0,0,1-2.85,1.06c-11.07-.28-22.3-.11-33.36.5a4.1,4.1,0,1,1-.45-8.19c11.28-.62,22.72-.79,34-.51a4.1,4.1,0,0,1,2.65,7.14ZM510.17,411.3a4.1,4.1,0,0,1-6.69-4.19c3.17-10.88,6.8-21.74,10.78-32.28a4.1,4.1,0,0,1,7.67,2.89c-3.9,10.35-7.46,21-10.57,31.69A4,4,0,0,1,510.17,411.3ZM846,108.05a4.19,4.19,0,0,1-2,1c-10.86,2-21.82,4.46-32.56,7.33a4.1,4.1,0,1,1-2.11-7.92c10.94-2.93,22.11-5.44,33.19-7.48a4.1,4.1,0,0,1,3.49,7.08ZM543.4,329.41a4.1,4.1,0,0,1-6.37-5c5.31-10,11.08-19.89,17.15-29.41a4.1,4.1,0,1,1,6.92,4.4c-6,9.35-11.62,19.06-16.82,28.86A4.24,4.24,0,0,1,543.4,329.41Zm217.79-196.5a4.12,4.12,0,0,1-1.2.75c-10.26,4.19-20.49,8.84-30.4,13.82a4.1,4.1,0,1,1-3.68-7.33c10.1-5.08,20.52-9.81,31-14.08a4.1,4.1,0,0,1,4.3,6.84Zm-78,41.57a4.14,4.14,0,0,1-.46.37c-9.19,6.17-18.26,12.8-27,19.7a4.11,4.11,0,0,1-5.76-.67,4.18,4.18,0,0,1,.66-5.76c8.88-7,18.13-13.79,27.49-20.08a4.1,4.1,0,0,1,5,6.44ZM592.7,256.06a4.1,4.1,0,0,1-5.89-5.67c7.24-8.68,14.91-17.18,22.81-25.27a4.11,4.11,0,0,1,5.87,5.74c-7.75,7.93-15.28,16.26-22.38,24.78A5.44,5.44,0,0,1,592.7,256.06Z"/><path class="cls-46" d="M1234.66,233.37a4.1,4.1,0,0,1-5.71-.21c-3.72-3.88-7.58-7.75-11.46-11.5a4.1,4.1,0,0,1-.1-5.8,4.16,4.16,0,0,1,5.8-.1c4,3.82,7.89,7.77,11.68,11.73a4.11,4.11,0,0,1-.12,5.8Z"/><path class="cls-47" d="M1354.62,547.44a4.1,4.1,0,0,1-6.84-3.2c.2-5.42.29-10.89.28-16.24a4.1,4.1,0,1,1,8.2,0c0,5.45-.08,11-.29,16.55A4.08,4.08,0,0,1,1354.62,547.44Z"/><path class="cls-48" d="M1212.88,851.71l-2.77,2.48a4.1,4.1,0,0,1-5.47-6.12l0,0,2.71-2.42c7.19-6.49,14.26-13.32,21-20.31a4.1,4.1,0,0,1,5.9,5.7C1227.41,838.13,1220.21,845.1,1212.88,851.71Zm-45.2,35.62a3.68,3.68,0,0,1-.44.34c-9.16,6.28-18.69,12.29-28.32,17.86a4.1,4.1,0,1,1-4.11-7.1c9.45-5.47,18.81-11.36,27.8-17.53a4.1,4.1,0,0,1,5.07,6.43ZM1269,790.18a4.1,4.1,0,0,1-6-5.5c6.55-8.75,12.82-17.85,18.66-27a4.1,4.1,0,1,1,6.92,4.39c-5.94,9.38-12.34,18.66-19,27.57A3.38,3.38,0,0,1,1269,790.18ZM1091.38,929.05a4,4,0,0,1-1.15.73c-10.27,4.34-20.8,8.33-31.32,11.85a4.1,4.1,0,0,1-2.61-7.78c10.32-3.46,20.66-7.37,30.74-11.62a4.1,4.1,0,0,1,4.34,6.82ZM1313.8,715.62a4.11,4.11,0,0,1-6.47-4.79c4.62-9.84,8.94-20,12.82-30.26a4.1,4.1,0,1,1,7.67,2.9c-4,10.45-8.35,20.82-13.06,30.84A4.12,4.12,0,0,1,1313.8,715.62Zm-305.51,239a4.06,4.06,0,0,1-1.94,1c-10.89,2.18-22,4-33.05,5.31a4.1,4.1,0,1,1-1-8.14c10.83-1.32,21.75-3.07,32.43-5.21a4.1,4.1,0,0,1,3.55,7.07Zm334.38-321.1a4.11,4.11,0,0,1-6.74-4c2.58-10.61,4.78-21.44,6.54-32.21a4.1,4.1,0,0,1,8.1,1.33c-1.8,11-4,22-6.67,32.82A4,4,0,0,1,1342.67,633.57ZM921.76,963a4.06,4.06,0,0,1-2.77,1.06c-11.09-.06-22.34-.56-33.45-1.48a4.1,4.1,0,1,1,.68-8.18c10.9.91,21.94,1.4,32.82,1.46a4.09,4.09,0,0,1,2.72,7.14Zm-86.44-9.28a4.12,4.12,0,0,1-3.6,1c-8.56-1.81-17.19-3.9-25.67-6.23-2.28-.62-4.56-1.27-6.82-1.92a4.1,4.1,0,1,1,2.3-7.88q3.33,1,6.69,1.89c8.32,2.29,16.79,4.34,25.19,6.11a4.11,4.11,0,0,1,1.91,7.06Zm-82.89-26.33a4.11,4.11,0,0,1-4.38.72c-10.21-4.41-20.37-9.28-30.21-14.46a4.1,4.1,0,0,1,3.82-7.26c9.65,5.09,19.63,9.86,29.64,14.19a4.11,4.11,0,0,1,1.13,6.81ZM676.5,885a4.1,4.1,0,0,1-5.1.31c-9.1-6.37-18.07-13.19-26.67-20.27a4.1,4.1,0,1,1,5.22-6.33c8.43,6.94,17.23,13.63,26.16,19.89a4.1,4.1,0,0,1,1,5.71A3.68,3.68,0,0,1,676.5,885Z"/><path class="cls-49" d="M610.6,828a4.11,4.11,0,0,1-5.73-.23c-3.75-4-7.49-8.1-11.13-12.26a4.29,4.29,0,0,1,.39-5.79,4.11,4.11,0,0,1,5.79.39c3.57,4.08,7.24,8.13,10.92,12a4.09,4.09,0,0,1-.17,5.79Z"/><path class="cls-50" d="M646.52,713.86a5.19,5.19,0,0,0,5.37,2.7l62.21-9.65a274,274,0,0,0,68.37,56.74l2,62.87a5.19,5.19,0,0,0,3.64,4.78l72.15,22.28a5.17,5.17,0,0,0,5.7-1.89l37.15-50.77a274.11,274.11,0,0,0,88.45-8.29l45.94,43a5.17,5.17,0,0,0,6,.8l66.77-35.26a5.15,5.15,0,0,0,2.7-5.36l-9.64-62.21a274.22,274.22,0,0,0,56.73-68.37l62.88-2a5.16,5.16,0,0,0,4.77-3.64L1250,587.43a5.16,5.16,0,0,0-1.88-5.7l-50.78-37.14a274.17,274.17,0,0,0-8.29-88.46l43-45.93a5.2,5.2,0,0,0,.8-6l-35.26-66.77a5.17,5.17,0,0,0-5.37-2.69L1130,344.42a274,274,0,0,0-68.37-56.73l-2-62.88A5.19,5.19,0,0,0,1056,220l-72.15-22.28a5.17,5.17,0,0,0-5.7,1.89L941,250.41a274.47,274.47,0,0,0-88.46,8.29l-45.93-43a5.17,5.17,0,0,0-6-.8l-66.77,35.26a5.17,5.17,0,0,0-2.7,5.36l9.64,62.21a274.58,274.58,0,0,0-56.73,68.37l-62.88,2.05a5.16,5.16,0,0,0-4.77,3.64L594.16,463.9a5.16,5.16,0,0,0,1.88,5.7l50.78,37.14a274.14,274.14,0,0,0,8.29,88.46l-43.05,45.94a5.17,5.17,0,0,0-.8,6Z"/><path class="cls-51" d="M971.11,580l-.06,0a54.63,54.63,0,1,1,.06,0Zm-89.83-99.57a60.9,60.9,0,0,0,81.54,90.47l0,0a60.9,60.9,0,0,0-81.54-90.47Z"/><path class="cls-51" d="M1049.8,664.41A188.48,188.48,0,0,1,831,689l6-10.72A177.36,177.36,0,0,0,871.47,693c72.86,22.51,149.46-4.85,192.82-62.6l.24-.32.25-.33A176.13,176.13,0,0,0,1079.1,442.6a177.19,177.19,0,0,0-25.14-36,175,175,0,0,0-78.58-50C882.63,328,783.86,380.1,755.21,472.85a175.78,175.78,0,0,0-2.84,93.73l-12,2.93a188.11,188.11,0,0,1,3-100.3C774.11,370,879.77,314.19,979,344.84a187.16,187.16,0,0,1,84.07,53.46,189.56,189.56,0,0,1,26.9,38.55,188.22,188.22,0,0,1-40.18,227.56Z"/><path class="cls-52" d="M1341.8,644.47a3.19,3.19,0,0,1,.78-5.65c4.08-1.38,8.25-2.63,12.4-3.74a3.19,3.19,0,0,1,1.64,6.16c-4,1.07-8.06,2.29-12,3.62A3.21,3.21,0,0,1,1341.8,644.47Z"/><path class="cls-53" d="M1596,888.4a3.19,3.19,0,0,1-1.27-3.52,196.11,196.11,0,0,0,5.61-25.63,3.19,3.19,0,1,1,6.31.93,200.62,200.62,0,0,1-5.8,26.48,3.19,3.19,0,0,1-4,2.17A3.4,3.4,0,0,1,1596,888.4Zm7.44-69.3a3.18,3.18,0,0,1-1.39-2.42,197.17,197.17,0,0,0-3.52-26,3.18,3.18,0,1,1,6.24-1.28,201.48,201.48,0,0,1,3.64,26.85,3.18,3.18,0,0,1-5,2.85ZM1396.8,634.29a3.19,3.19,0,0,1,1.66-5.82c4.8-.2,9.69-.23,14.53-.09,4.19.12,8.42.38,12.56.76a3.18,3.18,0,1,1-.58,6.34c-4-.36-8.11-.61-12.16-.73-4.7-.13-9.44-.1-14.08.09A3.21,3.21,0,0,1,1396.8,634.29ZM1586.6,751.5a3.19,3.19,0,0,1-1.11-1.32A196.05,196.05,0,0,0,1573.16,727a3.19,3.19,0,1,1,5.41-3.37,202.06,202.06,0,0,1,12.73,23.91,3.18,3.18,0,0,1-4.7,3.94Zm-120.71-108a3.19,3.19,0,0,1,2.77-5.67,202.65,202.65,0,0,1,25.19,10,3.19,3.19,0,1,1-2.74,5.76,195.25,195.25,0,0,0-24.4-9.67A3,3,0,0,1,1465.89,643.53Zm81.47,50.39a2.73,2.73,0,0,1-.49-.41,198.88,198.88,0,0,0-19.55-17.5,3.19,3.19,0,0,1-.55-4.48,3.25,3.25,0,0,1,4.47-.54,203.32,203.32,0,0,1,20.19,18.07,3.18,3.18,0,0,1-4.07,4.86Z"/><path class="cls-54" d="M1572.87,939.49a3.19,3.19,0,0,1-.89-4.35c2.24-3.52,4.39-7.14,6.4-10.78a3.19,3.19,0,0,1,4.33-1.25,3.11,3.11,0,0,1,1.25,4.33c-2.07,3.75-4.29,7.5-6.61,11.13a3.19,3.19,0,0,1-4.4,1Z"/><path class="cls-55" d="M1440.15,1028.38a3.2,3.2,0,0,1,1.24-5.78c4.1-.72,8.23-1.59,12.27-2.58a3.19,3.19,0,0,1,1.51,6.19c-4.17,1-8.43,1.92-12.67,2.67A3.19,3.19,0,0,1,1440.15,1028.38Z"/><path class="cls-56" d="M1307,1005.46a3.19,3.19,0,0,1,3.38-5.4,195.7,195.7,0,0,0,23.22,11.27,3.19,3.19,0,1,1-2.4,5.91,201.63,201.63,0,0,1-24-11.65Zm-34.51-24.93a3.85,3.85,0,0,1-.34-.26,204.4,204.4,0,0,1-18.6-19.09,3.19,3.19,0,0,1,4.85-4.14,195.36,195.36,0,0,0,18,18.49,3.19,3.19,0,0,1-3.93,5Zm99.07,48a3.19,3.19,0,0,1,2.33-5.78,196.75,196.75,0,0,0,25.68,2.67,3.19,3.19,0,0,1-.24,6.37,206.19,206.19,0,0,1-26.52-2.75A3.15,3.15,0,0,1,1371.57,1028.57Zm-141.42-102a3,3,0,0,1-1-1.12,202,202,0,0,1-11-24.26,3.19,3.19,0,0,1,6-2.25,192.32,192.32,0,0,0,10.68,23.49,3.19,3.19,0,0,1-4.61,4.14Zm-21.47-65.1a3.16,3.16,0,0,1-1.35-2.18,202.88,202.88,0,0,1-2.08-26.56,3.19,3.19,0,1,1,6.37-.08,197.13,197.13,0,0,0,2,25.73,3.19,3.19,0,0,1-5,3.09Zm1.94-68.54a3.19,3.19,0,0,1-1.33-3.27,201.86,201.86,0,0,1,7-25.71,3.19,3.19,0,1,1,6,2.09,194,194,0,0,0-6.81,24.89,3.19,3.19,0,0,1-3.76,2.49A3.25,3.25,0,0,1,1210.62,793Z"/><path class="cls-57" d="M1235.81,729a3.18,3.18,0,0,1-.92-4.29c2.25-3.67,4.65-7.31,7.12-10.81a3.18,3.18,0,0,1,4.4-.8l0,0a3.19,3.19,0,0,1,.77,4.44c-2.39,3.39-4.72,6.92-6.89,10.47a3.2,3.2,0,0,1-4.39,1Z"/><path class="cls-58" d="M1294.35,727.26a2.39,2.39,0,0,0-.62,2.7l11.09,26.81a126.31,126.31,0,0,0-18,36.8l-27.94,7.76a2.41,2.41,0,0,0-1.75,2.15L1255,838.23a2.4,2.4,0,0,0,1.47,2.35l26.79,11.11a126.19,126.19,0,0,0,13.34,38.72l-14.28,25.26a2.39,2.39,0,0,0,.29,2.76l23.06,26.07a2.38,2.38,0,0,0,2.69.62L1335.21,934a126.18,126.18,0,0,0,36.8,18l7.76,28a2.38,2.38,0,0,0,2.15,1.74l34.75,2.13a2.4,2.4,0,0,0,2.35-1.47l11.11-26.79a126.19,126.19,0,0,0,38.72-13.34l25.26,14.28a2.37,2.37,0,0,0,2.75-.29l26.08-23.06a2.37,2.37,0,0,0,.62-2.69l-11.09-26.82a126.18,126.18,0,0,0,18-36.8l28-7.76a2.41,2.41,0,0,0,1.74-2.15l2.13-34.75a2.38,2.38,0,0,0-1.47-2.34L1534,808.72A126.19,126.19,0,0,0,1520.66,770l14.28-25.26a2.37,2.37,0,0,0-.29-2.75l-23.06-26.08a2.37,2.37,0,0,0-2.69-.62l-26.82,11.09a126.44,126.44,0,0,0-36.8-18l-7.76-27.94a2.4,2.4,0,0,0-2.15-1.75l-34.75-2.12a2.38,2.38,0,0,0-2.35,1.46l-11.11,26.79a126.19,126.19,0,0,0-38.72,13.34l-25.26-14.28a2.37,2.37,0,0,0-2.75.29Z"/><path class="cls-51" d="M1388.54,859.69l0,0a35.68,35.68,0,1,1,26.74,5.61A35.45,35.45,0,0,1,1388.51,859.67Zm34.82-51.06a26.12,26.12,0,0,0-29.45,43.15h0a26.12,26.12,0,1,0,29.43-43.16Z"/><path class="cls-51" d="M1359.31,904.13a88.78,88.78,0,0,1-38.74-78.84,90.36,90.36,0,0,1,2.59-16.56c.17-.7.36-1.39.55-2.08l9.21,2.59a79.43,79.43,0,0,0-2.8,16.63h0a79,79,0,0,0,1,18.33v0s0,.06,0,.09a79.44,79.44,0,0,0,46.64,59.11,78.44,78.44,0,0,0,20,5.67l.68.1.55.07,1.42.17q1.92.21,3.87.33a78.67,78.67,0,0,0,57.33-19.73,79.72,79.72,0,0,0,13.08-14.82,79.24,79.24,0,0,0-102-114.86l-4.41-8.49a88.79,88.79,0,1,1-9,152.25Z"/><path class="cls-3" d="M1852.85,357.79a3.09,3.09,0,0,1-1.48-2.51c-.2-4.12-.48-8.26-.84-12.29a3.11,3.11,0,1,1,6.2-.55c.37,4.11.66,8.34.86,12.55a3.11,3.11,0,0,1-4.74,2.8Z"/><path class="cls-3" d="M1399.54,626.06c-6.21-3.8-12.33-7.86-18.22-12.08a3.11,3.11,0,0,1,3.63-5.06c6.78,4.85,13.86,9.48,21.06,13.76l0,0a3.12,3.12,0,0,1-3.22,5.34Zm40.13,20.53a3.12,3.12,0,0,1,2.83-5.53c7.7,3.22,15.64,6.16,23.6,8.73a3.11,3.11,0,1,1-1.91,5.92c-8.12-2.62-16.23-5.62-24.09-8.91A3.42,3.42,0,0,1,1439.67,646.59Zm63.93,18.77a3.11,3.11,0,0,1,2.16-5.72c8.25,1.46,16.64,2.57,24.94,3.32a3.12,3.12,0,0,1-.57,6.21c-8.47-.77-17-1.91-25.45-3.4A3.07,3.07,0,0,1,1503.6,665.36Zm66.47,4.19a3.11,3.11,0,0,1,1.46-5.77c8.33-.41,16.76-1.19,25-2.33a3.11,3.11,0,1,1,.85,6.17c-8.47,1.16-17.07,2-25.58,2.38A3.14,3.14,0,0,1,1570.07,669.55Zm65.7-10.78a3.09,3.09,0,0,1-1.37-1.81,3.12,3.12,0,0,1,2.16-3.84c8-2.26,16.06-4.91,23.89-7.85a3.12,3.12,0,0,1,2.2,5.83c-8,3-16.21,5.7-24.4,8A3.14,3.14,0,0,1,1635.77,658.77Zm61.7-25.11a3.12,3.12,0,0,1,.13-5.39c7.35-4,14.61-8.35,21.58-12.95a3.11,3.11,0,0,1,3.42,5.2c-7.11,4.69-14.52,9.14-22,13.22A3.11,3.11,0,0,1,1697.47,633.66Zm54.62-38.13a3.38,3.38,0,0,1-.72-.6,3.13,3.13,0,0,1,.29-4.4c6.27-5.51,12.39-11.37,18.17-17.4a3.11,3.11,0,0,1,4.49,4.31c-5.9,6.16-12.14,12.14-18.55,17.77A3.13,3.13,0,0,1,1752.09,595.53Zm44.8-49.31-.2-.14a3.11,3.11,0,0,1-.7-4.34c4.32-6,8.46-12.21,12.3-18.49l1.53-2.53a3.11,3.11,0,0,1,4.27-1.07h0a3.11,3.11,0,0,1,1.05,4.26q-.77,1.29-1.56,2.58c-3.92,6.41-8.15,12.77-12.56,18.88A3.12,3.12,0,0,1,1796.89,546.22Zm32.64-58.08a3.11,3.11,0,0,1-1.24-3.86c3.24-7.68,6.2-15.62,8.79-23.58a3.11,3.11,0,1,1,5.92,1.93c-2.64,8.13-5.66,16.23-9,24.07a3.13,3.13,0,0,1-4.08,1.66A4.13,4.13,0,0,1,1829.53,488.14Zm19-63.87a3.11,3.11,0,0,1-1.44-3.21c1.48-8.25,2.62-16.63,3.39-24.93a3.11,3.11,0,0,1,6.2.58c-.79,8.47-2,17-3.46,25.45a3.13,3.13,0,0,1-3.62,2.52A3.22,3.22,0,0,1,1848.49,424.27Z"/><path class="cls-3" d="M1349.6,587.65a4,4,0,0,1-.53-.41c-3-2.92-6-5.91-8.91-8.87a3.12,3.12,0,1,1,4.49-4.33c2.79,2.91,5.73,5.83,8.73,8.7a3.12,3.12,0,0,1-3.78,4.91Z"/><path class="cls-3" d="M1257.16,373.26a3.09,3.09,0,0,1-1.49-2.64c0-4.15,0-8.39.21-12.58a3.11,3.11,0,1,1,6.22.23c-.15,4.11-.22,8.26-.2,12.32a3.11,3.11,0,0,1-4.74,2.67Z"/><path class="cls-3" d="M1261.7,320.41a3.1,3.1,0,0,1-1.45-3.2c1.46-8.25,3.28-16.55,5.43-24.69a3.11,3.11,0,0,1,6,1.59c-2.1,8-3.89,16.11-5.32,24.18a3.12,3.12,0,0,1-3.6,2.53A3.41,3.41,0,0,1,1261.7,320.41ZM1280,257.47a3.13,3.13,0,0,1-1.25-3.85c3.22-7.77,6.81-15.48,10.66-22.93a3.12,3.12,0,0,1,5.53,2.87c-3.77,7.28-7.28,14.84-10.43,22.44a3.12,3.12,0,0,1-4.07,1.69A3.61,3.61,0,0,1,1280,257.47Zm31.65-57.42-.17-.11a3.11,3.11,0,0,1-.75-4.34c4.84-6.85,10-13.59,15.44-20a3.11,3.11,0,1,1,4.76,4c-5.29,6.3-10.38,12.89-15.11,19.6A3.12,3.12,0,0,1,1311.69,200.05Zm43.5-49.05a2.87,2.87,0,0,1-.69-.57,3.11,3.11,0,0,1,.22-4.39c6.23-5.63,12.77-11.06,19.45-16.15a3.12,3.12,0,0,1,3.77,5c-6.54,5-13,10.3-19,15.81A3.13,3.13,0,0,1,1355.19,151Zm53.15-38.35a3,3,0,0,1-1.08-1.12,3.11,3.11,0,0,1,1.17-4.24c7.3-4.14,14.87-8,22.49-11.53a3.12,3.12,0,0,1,2.61,5.66c-7.47,3.44-14.88,7.24-22,11.29A3.11,3.11,0,0,1,1408.34,112.65Zm60.22-25.87a3.08,3.08,0,0,1-1.35-1.74,3.11,3.11,0,0,1,2.07-3.89c8-2.45,16.26-4.58,24.46-6.34a3.11,3.11,0,0,1,1.31,6.09c-8,1.72-16.09,3.81-24,6.21A3.1,3.1,0,0,1,1468.56,86.78ZM1533,74.71a3.11,3.11,0,0,1,1.39-5.76c8.37-.62,16.87-.9,25.26-.82a3.12,3.12,0,0,1-.06,6.23c-8.21-.08-16.54.19-24.74.8A3.08,3.08,0,0,1,1533,74.71Zm65.49,2.39a3.11,3.11,0,0,1,2.08-5.74c8.27,1.23,16.62,2.82,24.82,4.74a3.11,3.11,0,0,1-1.42,6.06c-8-1.88-16.21-3.44-24.31-4.64A3,3,0,0,1,1598.45,77.1Zm63.41,16.6a3.12,3.12,0,0,1,2.74-5.57c7.86,3,15.67,6.38,23.21,10a3.12,3.12,0,1,1-2.71,5.61c-7.38-3.56-15-6.85-22.73-9.8A3,3,0,0,1,1661.86,93.7Zm78.51,44.73-.31-.22c-6.45-5.12-13.18-10-20-14.56a3.12,3.12,0,0,1-.87-4.32,3.08,3.08,0,0,1,4.32-.87c7,4.64,13.86,9.65,20.44,14.87a3.12,3.12,0,0,1-3.56,5.1Z"/><path class="cls-3" d="M1778.91,175.11a3.15,3.15,0,0,1-.72-.6c-2.72-3.1-5.52-6.16-8.32-9.09a3.12,3.12,0,0,1,4.51-4.3c2.85,3,5.71,6.11,8.49,9.28a3.11,3.11,0,0,1-4,4.71Z"/><path class="cls-31" d="M1746.34,241a3.57,3.57,0,0,0-3.72-1.85l-43,6.76a189.93,189.93,0,0,0-47.36-39.11l-1.52-43.47a3.58,3.58,0,0,0-2.52-3.29l-49.92-15.29a3.58,3.58,0,0,0-3.94,1.31l-25.6,35.17a189.87,189.87,0,0,0-61.14,5.87l-31.83-29.68a3.56,3.56,0,0,0-4.11-.54l-46.11,24.48a3.6,3.6,0,0,0-1.86,3.72l6.77,43a189.54,189.54,0,0,0-39.11,47.36l-43.47,1.52a3.56,3.56,0,0,0-3.29,2.52l-15.29,49.92a3.58,3.58,0,0,0,1.31,3.94l35.16,25.6a189.6,189.6,0,0,0,5.88,61.14L1342,451.85a3.58,3.58,0,0,0-.55,4.11l24.49,46.11a3.58,3.58,0,0,0,3.71,1.86l43-6.77A189.36,189.36,0,0,0,1460,536.27l1.51,43.47a3.58,3.58,0,0,0,2.53,3.29L1514,598.32a3.56,3.56,0,0,0,3.93-1.31l25.6-35.17a189.38,189.38,0,0,0,61.15-5.87l31.82,29.68a3.59,3.59,0,0,0,4.12.55l46.11-24.49a3.57,3.57,0,0,0,1.85-3.71l-6.76-43a189.58,189.58,0,0,0,39.11-47.36l43.47-1.51a3.59,3.59,0,0,0,3.29-2.53L1783,413.68a3.58,3.58,0,0,0-1.31-3.94l-35.17-25.59a189.69,189.69,0,0,0-5.88-61.15l29.69-31.83a3.56,3.56,0,0,0,.54-4.11Z"/><path class="cls-3" d="M1529.56,415.09a51.1,51.1,0,1,1,24,7.38A51,51,0,0,1,1529.56,415.09Zm48.29-79.18a41.43,41.43,0,0,0-19.63-6h0a41.52,41.52,0,1,0,19.63,6Zm-19.4-10.69h0Z"/><path class="cls-3" d="M1487,483.58c-49.63-30.36-74.56-91.58-56.75-149.73A130.66,130.66,0,0,1,1443.73,304c30.36-49.64,91.58-74.57,149.73-56.76,1,.32,2.09.65,3.13,1a130.6,130.6,0,0,1,20.21,8.68c.76.4,1.51.81,2.25,1.22l-4.56,8.16a122.11,122.11,0,0,0-23.76-10.13l-.24-.07a121.24,121.24,0,1,0,82.5,87l9.07-2.25a130.87,130.87,0,0,1-15.38,99.46c-30.36,49.64-91.59,74.57-149.74,56.77A130.76,130.76,0,0,1,1487,483.58Z"/><path class="cls-59" d="M811.83,979.08l-29.2,28.79c-41.44-4-73.38-16.88-97.9-33.24,14.76-36.71,29.75-58.48,41.53-71.24C764.84,957.65,811.83,979.08,811.83,979.08Z"/><path class="cls-60" d="M608.62,871.36l68.9-107.72c4.52,60.76,25.05,106.43,48.74,139.75-11.78,12.76-26.77,34.53-41.53,71.24C623.51,933.82,608.62,871.36,608.62,871.36Z"/><path class="cls-61" d="M535.35,1722.73c34.35,1.58,67.6.59,89.8-.56-20.21-14.38-66.78-45.68-105.74-58.15l-26.75-1.6s-9.07,13.79-12.3,45.33C484.79,1713.28,497.75,1721,535.35,1722.73Z"/><path class="cls-62" d="M625.43,1722.37l-.28-.2c-22.2,1.15-55.45,2.14-89.8.56-37.6-1.73-50.56-9.45-55-15-.15,1.46-.3,2.9-.42,4.43a12.51,12.51,0,0,0,11.5,13.52c28.14,2.13,97.89,7,131.52,5.18A4.69,4.69,0,0,0,625.43,1722.37Z"/><path class="cls-63" d="M289.67,1713.53c-2.51-16.12-6.55-39.43-9.66-45.39-4.89-9.35-21.63,0-21.63,0s-11.75,5.48-17.16,14.61c-3.45,5.82-13,22.38-19.44,33.63a7.54,7.54,0,0,0-1,4l67,2.35A13.36,13.36,0,0,0,289.67,1713.53Z"/><path class="cls-64" d="M220.77,1720.38a7.63,7.63,0,0,0,7.42,7.42l47.75,1.31a13.47,13.47,0,0,0,11.85-6.38Z"/><path class="cls-65" d="M294.79,1614.54c-.57,1.93-9.23,43.92-13,62.34a10.52,10.52,0,0,1-10.82,8.41c-2.84-.14-6.14-.4-9.6-.85a12.7,12.7,0,0,1-11-12.1c-.61-16.14-.92-47.13,5-59.14C263.48,1596.64,294.79,1614.54,294.79,1614.54Z"/><path class="cls-66" d="M487.4,1626.56c3.71-.12-1.48,19.18,4.14,38.14,1.26,4.28,4.46,7.64,8.92,7.7,2.89,0,6.32,0,9.8-.3a10.78,10.78,0,0,0,9.92-9.71l4.57-49.19Z"/><path class="cls-67" d="M591.29,1103.64c-1.66,8.07-60.17,349.39-63.72,526a6,6,0,0,1-5.17,5.85c-7.43,1-21.9,2.37-35.93-.23a4.24,4.24,0,0,1-3.49-3.89c-2-32.91-18.49-311.18,1.65-442.18,0,0-166.38,350.17-191.6,446.73a5.07,5.07,0,0,1-5.19,3.8c-7.13-.38-21.95-1.66-33.71-6a8.81,8.81,0,0,1-5.56-10.35c14.09-57.79,112.84-455.91,179.89-543.62Z"/><path class="cls-68" d="M484.63,1191.37a2.13,2.13,0,0,1-1.52-.62,2.18,2.18,0,0,1,0-3.09l22.28-22.78a2.18,2.18,0,0,1,3.12,3l-22.28,22.79A2.18,2.18,0,0,1,484.63,1191.37Z"/><path class="cls-69" d="M686.4,676.32c-42.74-11.19-121.57-28.73-184.33-25A28.4,28.4,0,0,0,475.29,678c-9.48,167.14-22.43,315.45-46.83,401.75,54.84,21.7,109.2,31.76,162.83,23.88Q651.56,974.55,696.61,805.4s17.61-90,.51-120C694.46,680.73,691,677.51,686.4,676.32Z"/><path class="cls-70" d="M583.6,559.24s-10.79,64.38-14,94.16A11.67,11.67,0,0,0,575.93,665c11.79,6.07,37,15.85,64.41,6.88a10.89,10.89,0,0,0,7.38-10.61l-1.88-85.95Z"/><path class="cls-71" d="M654,487.9s20.82,47.84,22.22,72.94S683,602.24,654,607.29s-53.49-9.4-66.73-34.41c0,0-20.76-38.53-16.1-54.31S654,487.9,654,487.9Z"/><path class="cls-72" d="M597.18,554.9h3.67s-15.12-31-1.84-36.46,65.91-16.18,77.27-34.86c10.94-18,1.18-41.25-13.42-47.76a2,2,0,0,0-2.49.92L659.16,439a2,2,0,0,1-3.64-.38h0a2,2,0,0,0-3.53-.54c-3.48,5.59-12.89,14.67-38.13,19.33-35.82,6.61-59.5,21.1-60.08,45.86a2,2,0,0,1-3,1.61c-2.65-1.61-6.88-2.36-12.53,2.39-9.84,8.27-5.81,29.72,15.75,47.37a2,2,0,0,1-.1,3.16c-3.91,2.54-9.73,8.6,5.37,16.67,15.44,8.25,24.58,7.35,28,6.47a2,2,0,0,0,1.49-2L587.39,557a2,2,0,0,1,2-2.09Z"/><path class="cls-73" d="M598.08,559.49s-8-30.55-21.64-22,7.1,34.24,18.12,35.38Z"/><path class="cls-74" d="M153.58,1056.61l-28.12,7.1c-48.26,12.2-80.71,48.47-72.49,81l9.78,38.68c8.22,32.54,54,49,102.27,36.83l28.12-7.11q2.79-.7,5.55-1.53L1023.3,964.85,1002,880.58l-842.8,174.73Q156.37,1055.9,153.58,1056.61Zm12.11,38.6c36.33-9.18,70.2.87,75.66,22.46s-19.57,46.54-55.9,55.72-70.21-.87-75.67-22.46S129.36,1104.4,165.69,1095.21Z"/><path class="cls-75" d="M1276.16,766.07,1113,807.32a38.63,38.63,0,0,0-26,22.09l-24.41,56.37a38.62,38.62,0,0,0,11.55,45.7l48.27,38a38.6,38.6,0,0,0,33.35,7.09L1319,935.33c24.61-6.22,45.52,19.47,33.9,42-27.8,54-78.81,96.7-143.73,113.11-117.35,29.66-221.2-41.43-249.73-154.3S988.46,711.4,1105.8,681.74c64.93-16.41,130.1-3.07,180.22,31.23C1307,727.31,1300.78,759.85,1276.16,766.07Z"/><path class="cls-76" d="M1280.05,781.45l-163.17,41.24a38.62,38.62,0,0,0-26,22.1l-24.41,56.37a38.62,38.62,0,0,0,11.55,45.7l48.26,38a38.6,38.6,0,0,0,33.36,7.1l163.17-41.24c24.62-6.22,45.53,19.47,33.91,42-27.8,54-78.81,96.7-143.73,113.11-117.35,29.66-221.2-41.43-249.73-154.31s29.07-224.77,146.41-254.43c64.92-16.41,130.1-3.07,180.22,31.23C1310.86,742.69,1304.66,775.23,1280.05,781.45Z"/><path class="cls-77" d="M156.68,1068.87,128.56,1076c-48.26,12.2-80.71,48.46-72.49,81l9.78,38.68c8.22,32.54,54,49,102.27,36.83l28.12-7.11q2.79-.7,5.55-1.53L1026.4,977.12l-21.3-84.27L162.29,1067.58Q159.47,1068.17,156.68,1068.87Zm12.11,38.61c36.33-9.18,70.21.87,75.66,22.46s-19.57,46.53-55.9,55.72-70.21-.88-75.67-22.46S132.46,1116.66,168.79,1107.48Z"/><path class="cls-78" d="M364.7,898.93c-21.14,59.29-9.23,122.86-9.23,122.86l-27.86,7.43s-36-42.8-27.76-137.79C325.57,887.5,349.65,893.53,364.7,898.93Z"/><path class="cls-79" d="M299.85,891.43c.93-10.68,2.38-22,4.54-34,18.82-104.76,153.13-185.35,184.74-203a4.31,4.31,0,0,1,6.4,3.94l-4.48,142.41c-74.8,10.05-110.21,52.85-126.35,98.15C349.65,893.53,325.57,887.5,299.85,891.43Z"/><path class="cls-80" d="M870.59,1031.33a18,18,0,0,0,11.67-10.1c4.28-9.59,9.1-24.94-1.19-29.62-15.32-7-43.18,21.59-43.18,21.59l-13.61,22.07-12.45,6C823.23,1044.46,845.22,1039.23,870.59,1031.33Z"/><path class="cls-81" d="M353.61,1007.87h34.44s-27.94,16.75-28.87,34.38,11.09,54.12,16.72,64.06c6.14,10.87-78-16.18-48.29-98.44Z"/><path class="cls-82" d="M2054.69,2696v29.52c0,7.56-3.88,13.8-9,14.48l-460.59,41.74a32.93,32.93,0,0,1-10.25-.2c-.89-.16-1.78-.35-2.66-.57l-320.92-60.5c-3.42-.88-5.92-5.34-5.92-10.53v-31.19l340.49-42.2,43.83-20.75,43.58,6.28,25.74-4.93,58.82,17.12Z"/><path class="cls-83" d="M2054.69,2696v29.52c0,7.56-3.88,13.8-9,14.48l-460.57,41.74a33.07,33.07,0,0,1-10.23-.21v-159l54.8-6.7,43.57,6.28,25.74-4.93,58.81,17.12Z"/><path class="cls-84" d="M1699,2617.17l-453.64,60.21,327.2,61.64a31.72,31.72,0,0,0,12.18.71l470-43.71Z"/><path class="cls-85" d="M1865.28,2671.56c0,21.6-68,38.4-161.85,42.76-23.69,1.09-49,1.39-75.3.79-129.17-3-233-27-233-53.61a7.08,7.08,0,0,1,.18-1.92h-.18l.53-1.28a7.8,7.8,0,0,1,.49-1.24l29.79-77.88,36-94,50.38-131.71,38.56-100.82,48-125.36c6-15.7,17.12-25.46,29.14-25.46a21.58,21.58,0,0,1,4.82.53c10.14,2.22,19.2,11.36,24.41,25l48.37,126.24,38.64,102.15,51,134.35v0l36.6,96.53v0l.58.06,30.48,78.45C1864.18,2667.27,1865.28,2669.41,1865.28,2671.56Z"/><path class="cls-43" d="M1832.39,2586.73c-29.41,9.83-76.43,16.9-132.71,19.53-22.69,1.07-46.69,1.42-71.69.94-86.79-1.65-162-12.81-202.09-28l36-94c42.14,9.48,100.87,15.87,166.15,16.85,21.11.32,41.68.05,61.26-.74,41.22-1.63,77.57-5.58,106.2-11.2l36.29,96.52v0Z"/><path class="cls-43" d="M1744.68,2355.73c-22.45,2.43-47.13,4.08-73.31,4.82-14,.42-28.48.56-43.24.41a1005,1005,0,0,1-115.8-7.46l38.56-100.83c24.13,1.91,50.13,3,77.24,3.15q14.37.09,28.28-.19c17-.32,33.47-1,49.19-2.05Z"/></g></g></svg>