<?xml version="1.0" standalone="no"?><svg xmlns="http://www.w3.org/2000/svg" viewBox="0 0 1440 320"><path fill="#2e499e" fill-opacity="1" d="M0,320L40,282.7C80,245,160,171,240,144C320,117,400,139,480,170.7C560,203,640,245,720,256C800,267,880,245,960,240C1040,235,1120,245,1200,229.3C1280,213,1360,171,1400,149.3L1440,128L1440,320L1400,320C1360,320,1280,320,1200,320C1120,320,1040,320,960,320C880,320,800,320,720,320C640,320,560,320,480,320C400,320,320,320,240,320C160,320,80,320,40,320L0,320Z"></path></svg>